<svg width="62" height="62" viewBox="0 0 62 62" fill="none" xmlns="http://www.w3.org/2000/svg">
<path d="M31 61C47.5685 61 61 47.5685 61 31C61 14.4315 47.5685 1 31 1C14.4315 1 1 14.4315 1 31C1 47.5685 14.4315 61 31 61Z" fill="#EC6E72" stroke="#242529" stroke-width="2" stroke-linecap="round" stroke-linejoin="round"/>
<path d="M31 56.5C45.0833 56.5 56.5 45.0833 56.5 31C56.5 16.9167 45.0833 5.5 31 5.5C16.9167 5.5 5.5 16.9167 5.5 31C5.5 45.0833 16.9167 56.5 31 56.5Z" fill="white" stroke="#242529" stroke-width="2" stroke-linecap="round" stroke-linejoin="round"/>
<path d="M30.1 43.345L17.5 29.5H25L28.9 33.655L37.345 17.5H44.5L30.1 43.345Z" fill="#EC6E72" stroke="#242529" stroke-width="2" stroke-linecap="round" stroke-linejoin="round"/>
</svg>
