<svg width="15" height="17" viewBox="0 0 15 17" fill="none" xmlns="http://www.w3.org/2000/svg">
<path fill-rule="evenodd" clip-rule="evenodd" d="M9.8945 1.05279C9.7662 0.796241 9.534 0.607131 9.2568 0.533511C8.9795 0.459881 8.684 0.508851 8.4454 0.667951C8.0995 0.898581 7.8314 1.22608 7.6229 1.54791C7.40855 1.87854 7.21986 2.26148 7.053 2.66366C6.71939 3.46773 6.43911 4.43195 6.21375 5.39778C5.92752 6.62448 5.71568 7.91687 5.60004 8.9776C5.11585 8.6512 4.83491 8.28527 4.65481 7.91104C4.32729 7.23046 4.25736 6.3772 4.25736 5.25739C4.25736 4.85292 4.01372 4.48829 3.64004 4.33351C3.26637 4.17872 2.83625 4.26428 2.55025 4.55028C1.18361 5.91692 0.5 7.71013 0.5 9.5C0.5 11.2899 1.18361 13.0831 2.55025 14.4498C5.28392 17.1834 9.7161 17.1834 12.4497 14.4498C13.8164 13.0831 14.5 11.2899 14.5 9.5C14.5 7.71013 13.8164 5.91692 12.4497 4.55028C11.8584 3.95889 11.4696 3.56453 11.1021 3.0828C10.739 2.60688 10.3781 2.01991 9.8945 1.05279ZM9.6213 13.6213C8.4497 14.7929 6.55025 14.7929 5.37868 13.6213C4.79289 13.0355 4.5 12.2678 4.5 11.5C4.5 11.5 5.37868 12 7.00005 12C7.00005 11 7.5 8 8.25 7.5C8.75 8.5 9.0355 8.7929 9.6213 9.3787C10.2071 9.9645 10.5 10.7322 10.5 11.5C10.5 12.2678 10.2071 13.0355 9.6213 13.6213Z" fill="#EC6E72"/>
</svg>
