<svg width="20" height="20" viewBox="0 0 20 20" fill="none" xmlns="http://www.w3.org/2000/svg">
<path fill-rule="evenodd" clip-rule="evenodd" d="M16.6245 5.90974C16.6332 5.25882 16.3892 4.60517 15.8925 4.1085C15.3958 3.61183 14.7422 3.36783 14.0913 3.37649C14.091 3.3765 14.0915 3.37649 14.0913 3.37649C13.7315 3.38138 13.3719 3.46347 13.0408 3.62274C12.9221 3.67981 12.807 3.7468 12.6968 3.8237C12.6543 3.85332 12.5997 3.86008 12.5518 3.84025C12.5041 3.82043 12.4701 3.777 12.4611 3.72607C12.4375 3.59372 12.4035 3.46498 12.3599 3.34072C12.2384 2.99399 12.0427 2.68216 11.7917 2.42431C11.7916 2.42413 11.7919 2.42449 11.7917 2.42431C11.3376 1.95792 10.7024 1.66772 9.99996 1.66772C9.29757 1.66772 8.66283 1.95739 8.20869 2.42378C8.20852 2.42396 8.20886 2.4236 8.20869 2.42378C7.95775 2.68163 7.76149 2.99398 7.63999 3.34071C7.59645 3.46497 7.56244 3.59372 7.53885 3.72607C7.52977 3.777 7.49587 3.82043 7.44808 3.84024C7.40026 3.86008 7.3456 3.85332 7.30314 3.8237C7.19288 3.7468 7.0778 3.67981 6.95914 3.62274C6.62805 3.46347 6.26914 3.38139 5.90937 3.3765C5.90913 3.3765 5.90962 3.37651 5.90937 3.3765C5.25846 3.36784 4.60407 3.61183 4.1074 4.1085C3.61074 4.60517 3.36673 5.25882 3.37539 5.90974C3.37539 5.90949 3.3754 5.90998 3.37539 5.90974C3.38029 6.2695 3.46237 6.62915 3.62163 6.96023C3.67871 7.07889 3.7457 7.19397 3.8226 7.30424C3.85222 7.3467 3.85898 7.40136 3.83915 7.44918C3.81933 7.49697 3.7759 7.53087 3.72497 7.53995C3.59262 7.56354 3.46387 7.59755 3.3396 7.64109C2.99288 7.76259 2.68106 7.95834 2.42321 8.20927C2.42303 8.20944 2.42339 8.2091 2.42321 8.20927C1.95682 8.66342 1.66663 9.29866 1.66663 10.0011C1.66663 10.7035 1.95629 11.3382 2.42268 11.7923C2.42251 11.7922 2.42286 11.7925 2.42268 11.7923C2.68053 12.0433 2.99288 12.2395 3.3396 12.361C3.46387 12.4046 3.59262 12.4386 3.72497 12.4622C3.7759 12.4712 3.81933 12.5052 3.83915 12.5529C3.85898 12.6008 3.85222 12.6554 3.8226 12.6979C3.7457 12.8081 3.67871 12.9232 3.62163 13.0419C3.46237 13.373 3.3803 13.7319 3.3754 14.0916C3.3754 14.0919 3.37541 14.0914 3.3754 14.0916C3.36674 14.7426 3.61074 15.3969 4.1074 15.8936C4.60407 16.3903 5.25772 16.6343 5.90864 16.6256C5.90839 16.6256 5.90888 16.6256 5.90864 16.6256C6.2684 16.6207 6.62804 16.5386 6.95912 16.3794C7.07778 16.3223 7.19287 16.2553 7.30313 16.1784C7.3456 16.1488 7.40026 16.142 7.44808 16.1619C7.49587 16.1817 7.52977 16.2251 7.53885 16.2761C7.56244 16.4084 7.59645 16.5372 7.64 16.6614C7.7615 17.0081 7.95725 17.32 8.20817 17.5778C8.208 17.5776 8.20835 17.578 8.20817 17.5778C8.66232 18.0442 9.29757 18.3344 9.99996 18.3344C10.7024 18.3344 11.3371 18.0447 11.7912 17.5783C11.7911 17.5785 11.7914 17.5782 11.7912 17.5783C12.0422 17.3205 12.2384 17.0081 12.3599 16.6614C12.4035 16.5372 12.4375 16.4084 12.4611 16.2761C12.4701 16.2251 12.5041 16.1817 12.5518 16.1619C12.5997 16.142 12.6543 16.1488 12.6968 16.1784C12.8071 16.2553 12.9221 16.3223 13.0408 16.3794C13.3719 16.5386 13.7308 16.6207 14.0905 16.6256C14.0903 16.6256 14.0908 16.6256 14.0905 16.6256C14.7415 16.6343 15.3958 16.3903 15.8925 15.8936C16.3892 15.3969 16.6332 14.7433 16.6245 14.0924C16.6245 14.0921 16.6245 14.0926 16.6245 14.0924C16.6196 13.7326 16.5375 13.373 16.3783 13.0419C16.3212 12.9232 16.2542 12.8082 16.1773 12.6979C16.1477 12.6554 16.1409 12.6008 16.1608 12.5529C16.1806 12.5052 16.224 12.4712 16.275 12.4622C16.4073 12.4386 16.5361 12.4046 16.6603 12.361C17.007 12.2395 17.3189 12.0438 17.5767 11.7928C17.5765 11.793 17.5769 11.7927 17.5767 11.7928C18.0431 11.3387 18.3333 10.7035 18.3333 10.0011C18.3333 9.29866 18.0436 8.66393 17.5772 8.20979C17.5771 8.20961 17.5774 8.20996 17.5772 8.20979C17.3194 7.95886 17.007 7.76259 16.6603 7.6411C16.5361 7.59755 16.4073 7.56354 16.275 7.53995C16.224 7.53087 16.1806 7.49697 16.1608 7.44918C16.1409 7.40136 16.1477 7.3467 16.1773 7.30423C16.2542 7.19397 16.3212 7.07888 16.3783 6.96022C16.5376 6.62914 16.6196 6.2695 16.6245 5.90974C16.6245 5.90949 16.6245 5.90998 16.6245 5.90974ZM14.714 5.28701C14.4253 4.99833 13.9742 4.96476 13.6502 5.19074C13.1586 5.53359 12.5057 5.62541 11.9134 5.37979C11.3227 5.13482 10.9256 4.60926 10.8203 4.01855C10.7509 3.62964 10.4082 3.33439 9.99996 3.33439C9.5917 3.33439 9.24898 3.62964 9.17965 4.01855C9.07436 4.60926 8.67727 5.13481 8.08649 5.37979C7.49419 5.62541 6.84133 5.53359 6.34973 5.19074C6.02571 4.96476 5.5746 4.99833 5.28591 5.28701C4.99723 5.57569 4.96366 6.02681 5.18964 6.35083C5.5325 6.84243 5.62431 7.49529 5.37869 8.08759C5.13372 8.67837 4.60816 9.07546 4.01745 9.18075C3.62854 9.25008 3.33329 9.5928 3.33329 10.0011C3.33329 10.4093 3.62854 10.752 4.01745 10.8214C4.60816 10.9267 5.13372 11.3238 5.37869 11.9145C5.62431 12.5068 5.53249 13.1597 5.18964 13.6513C4.96366 13.9753 4.99723 14.4264 5.28591 14.7151C5.5746 15.0038 6.02571 15.0374 6.34973 14.8114C6.84132 14.4685 7.49418 14.3767 8.08649 14.6223C8.67726 14.8673 9.07436 15.3929 9.17966 15.9836C9.24898 16.3725 9.5917 16.6677 9.99996 16.6677C10.4082 16.6677 10.7509 16.3725 10.8203 15.9836C10.9256 15.3929 11.3227 14.8673 11.9134 14.6223C12.5057 14.3767 13.1586 14.4685 13.6502 14.8114C13.9742 15.0374 14.4253 15.0038 14.714 14.7151C15.0027 14.4264 15.0363 13.9753 14.8103 13.6513C14.4674 13.1597 14.3756 12.5068 14.6212 11.9145C14.8662 11.3238 15.3918 10.9267 15.9825 10.8214C16.3714 10.752 16.6666 10.4093 16.6666 10.0011C16.6666 9.5928 16.3714 9.25008 15.9825 9.18075C15.3918 9.07546 14.8662 8.67837 14.6212 8.08759C14.3756 7.49528 14.4674 6.84242 14.8103 6.35082C15.0363 6.02681 15.0027 5.5757 14.714 5.28701Z" fill="#777E91"/>
<path fill-rule="evenodd" clip-rule="evenodd" d="M9.99996 11.6677C10.9204 11.6677 11.6666 10.9215 11.6666 10.0011C11.6666 9.08058 10.9204 8.33439 9.99996 8.33439C9.07948 8.33439 8.33329 9.08058 8.33329 10.0011C8.33329 10.9215 9.07948 11.6677 9.99996 11.6677ZM9.99996 13.3344C11.8409 13.3344 13.3333 11.842 13.3333 10.0011C13.3333 8.16011 11.8409 6.66772 9.99996 6.66772C8.15901 6.66772 6.66663 8.16011 6.66663 10.0011C6.66663 11.842 8.15901 13.3344 9.99996 13.3344Z" fill="#777E91"/>
</svg>
