<svg width="20" height="20" viewBox="0 0 20 20" fill="none" xmlns="http://www.w3.org/2000/svg">
<g clip-path="url(#clip0_272_125)">
<path fill-rule="evenodd" clip-rule="evenodd" d="M8.36651 12.5022C8.82609 12.4777 9.21852 12.8304 9.24302 13.2899C9.27646 13.9172 9.31736 14.414 9.3583 14.8022C9.41329 15.3235 9.73353 15.6403 10.1942 15.693C10.8556 15.7686 11.8564 15.8343 13.3333 15.8343C14.8102 15.8343 15.811 15.7686 16.4724 15.693C16.9338 15.6402 17.2532 15.3243 17.3081 14.8037C17.4043 13.892 17.5 12.3849 17.5 10.001C17.5 7.61702 17.4043 6.10996 17.3081 5.19827C17.2532 4.6777 16.9338 4.36171 16.4724 4.30897C15.811 4.23336 14.8102 4.16764 13.3333 4.16764C11.8564 4.16764 10.8556 4.23336 10.1942 4.30897C9.73353 4.36163 9.41329 4.67841 9.3583 5.19976C9.31736 5.58797 9.27646 6.08477 9.24302 6.71201C9.21852 7.17159 8.82609 7.5243 8.36651 7.4998C7.90692 7.4753 7.55422 7.08287 7.57872 6.62328C7.61349 5.97092 7.65651 5.44519 7.70083 5.02495C7.83129 3.78794 8.70887 2.80124 10.0049 2.65308C10.7435 2.56865 11.8096 2.50098 13.3333 2.50098C14.857 2.50098 15.9231 2.56865 16.6617 2.65308C17.9569 2.80115 18.8349 3.78557 18.9656 5.02334C19.0695 6.00769 19.1666 7.57532 19.1666 10.001C19.1666 12.4266 19.0695 13.9943 18.9656 14.9786C18.8349 16.2164 17.9569 17.2008 16.6617 17.3489C15.9231 17.4333 14.857 17.501 13.3333 17.501C11.8096 17.501 10.7435 17.4333 10.0049 17.3489C8.70887 17.2007 7.83129 16.214 7.70083 14.977C7.65651 14.5568 7.6135 14.031 7.57872 13.3787C7.55422 12.9191 7.90692 12.5267 8.36651 12.5022Z" fill="#777E91"/>
<path fill-rule="evenodd" clip-rule="evenodd" d="M5.17263 12.3284C5.49807 12.6538 5.49807 13.1815 5.17263 13.5069C4.84719 13.8323 4.31956 13.8323 3.99412 13.5069L1.07745 10.5902C0.752015 10.2648 0.752015 9.73716 1.07745 9.41172L3.99412 6.49505C4.31955 6.16962 4.84719 6.16962 5.17263 6.49505C5.49807 6.82049 5.49807 7.34813 5.17263 7.67357L3.67855 9.16764L11.6667 9.16764C12.1269 9.16764 12.5 9.54074 12.5 10.001C12.5 10.4612 12.1269 10.8343 11.6667 10.8343L3.67855 10.8343L5.17263 12.3284Z" fill="#777E91"/>
</g>
<defs>
<clipPath id="clip0_272_125">
<rect width="20" height="20" fill="white" transform="translate(0 20.001) rotate(-90)"/>
</clipPath>
</defs>
</svg>
