<svg width="80" height="80" viewBox="0 0 80 80" fill="none" xmlns="http://www.w3.org/2000/svg">
<rect width="80" height="80" rx="40" fill="#E9575C"/>
<path opacity="0.4" d="M54.1885 28.0207H57.0221C56.6262 27.4582 56.2096 26.9373 55.7721 26.4165L54.1885 28.0207Z" fill="white"/>
<path opacity="0.4" d="M53.5834 24.208C53.0625 23.7705 52.5417 23.3538 51.9792 22.958V25.7913L53.5834 24.208Z" fill="white"/>
<path opacity="0.4" d="M50.4167 31.1457C50.2084 31.1457 50.0209 31.104 49.8125 31.0207C49.4375 30.854 49.125 30.5623 48.9584 30.1665C48.875 29.979 48.8334 29.7707 48.8334 29.5623V21.229C48.8334 21.2082 48.8542 21.1873 48.8542 21.1457C46.1667 19.8957 43.1667 19.1665 40 19.1665C28.5 19.1665 19.1667 28.4998 19.1667 39.9998C19.1667 51.4998 28.5 60.8332 40 60.8332C51.5 60.8332 60.8334 51.4998 60.8334 39.9998C60.8334 36.8332 60.1042 33.8332 58.8334 31.1248C58.8125 31.1248 58.7917 31.1457 58.75 31.1457H50.4167Z" fill="white"/>
<path d="M43.6459 39.625L41.5625 38.8958V34.2708H41.7292C42.7917 34.2708 43.6459 35.2083 43.6459 36.3542C43.6459 37.2083 44.3542 37.9167 45.2084 37.9167C46.0625 37.9167 46.7709 37.2083 46.7709 36.3542C46.7709 33.4792 44.5209 31.1458 41.7292 31.1458H41.5625V30.625C41.5625 29.7708 40.8542 29.0625 40 29.0625C39.1459 29.0625 38.4375 29.7708 38.4375 30.625V31.1458H37.8125C35.2917 31.1458 33.2292 33.2708 33.2292 35.8958C33.2292 38.9375 35 39.9167 36.3542 40.3958L38.4375 41.125V45.75H38.2709C37.2084 45.75 36.3542 44.8125 36.3542 43.6667C36.3542 42.8125 35.6459 42.1042 34.7917 42.1042C33.9375 42.1042 33.2292 42.8125 33.2292 43.6667C33.2292 46.5417 35.4792 48.875 38.2709 48.875H38.4375V49.3958C38.4375 50.25 39.1459 50.9583 40 50.9583C40.8542 50.9583 41.5625 50.25 41.5625 49.3958V48.875H42.1875C44.7084 48.875 46.7709 46.75 46.7709 44.125C46.7709 41.0625 45 40.0833 43.6459 39.625ZM37.375 37.4167C36.6667 37.1667 36.3542 37.0208 36.3542 35.875C36.3542 34.9792 37.0209 34.25 37.8125 34.25H38.4375V37.7708L37.375 37.4167ZM42.1875 45.7292H41.5625V42.2083L42.625 42.5833C43.3334 42.8333 43.6459 42.9792 43.6459 44.125C43.6459 45 42.9792 45.7292 42.1875 45.7292Z" fill="white"/>
<path d="M55.7906 26.4167L61.9364 20.2708C62.5406 19.6667 62.5406 18.6667 61.9364 18.0625C61.3323 17.4583 60.3323 17.4583 59.7281 18.0625L53.5823 24.2083C54.3739 24.8958 55.1031 25.6458 55.7906 26.4167Z" fill="white"/>
<path d="M51.9787 21.25C51.9787 20.3958 51.2704 19.6875 50.4162 19.6875C49.5829 19.6875 48.9162 20.3542 48.8746 21.1667C49.9579 21.6875 50.9996 22.2708 51.9787 22.9583V21.25Z" fill="white"/>
<path d="M60.3123 29.5835C60.3123 28.7293 59.604 28.021 58.7498 28.021H57.0206C57.7081 29.0002 58.3123 30.0418 58.8123 31.1252C59.6456 31.0835 60.3123 30.4168 60.3123 29.5835Z" fill="white"/>
</svg>
