<svg width="46" height="46" viewBox="0 0 46 46" fill="none" xmlns="http://www.w3.org/2000/svg">
<path fill-rule="evenodd" clip-rule="evenodd" d="M18.4969 0.337616C12.2489 1.40762 5.85388 6.05012 2.81338 11.7246C-3.40811 23.3351 0.999387 36.7781 12.9709 42.7056C12.9709 42.7056 16.8204 45.0496 22.4709 45.0496C27.9124 45.0496 31.4969 42.9876 31.4969 42.9876C35.9009 40.8716 38.6104 38.7916 40.4534 36.1131C41.3024 34.8791 41.9969 33.7646 41.9969 33.6366C41.9969 33.5086 40.9084 32.7056 39.5779 31.8516C36.1064 29.6241 33.3704 29.6916 30.2384 32.0821C26.0804 35.2556 24.3404 35.9381 21.3774 35.5551C14.3104 34.6421 9.50688 29.3796 9.50688 22.5496C9.50688 16.8716 13.1264 11.8336 18.4849 10.0536C23.0894 8.52412 25.0289 9.09762 31.5509 13.9191C33.6179 15.4466 37.1584 15.2236 39.6659 13.4071C40.7864 12.5956 41.7774 11.7076 41.8689 11.4341C42.1939 10.4581 37.8624 5.69062 34.9239 3.79162C29.8834 0.533616 24.2579 -0.648884 18.4969 0.337616Z" fill="white"/>
<path fill-rule="evenodd" clip-rule="evenodd" d="M19.4147 15.979C14.7407 18.138 13.5342 23.771 16.9757 27.3635C19.7812 30.2915 23.9302 30.274 27.3327 27.32C28.2027 26.5645 29.4062 25.688 30.0067 25.373C31.7117 24.478 34.9557 24.696 37.4622 25.8745C41.8857 27.9535 45.1647 26.538 45.1647 22.5495C45.1647 18.7185 41.8882 16.9905 37.9377 18.738C33.1522 20.8545 30.7817 20.548 26.7237 17.287C24.4557 15.4645 21.6257 14.958 19.4147 15.979Z" fill="#EC6E72"/>
</svg>
